<svg xmlns="http://www.w3.org/2000/svg" width="75" viewBox="0 0 75 75" height="75" version="1.0"><defs><clipPath id="a"><path d="M 9.238281 14.867188 L 66.238281 14.867188 L 66.238281 71.867188 L 9.238281 71.867188 Z M 9.238281 14.867188"/></clipPath><clipPath id="b"><path d="M 25 32 L 52 32 L 52 58.785156 L 25 58.785156 Z M 25 32"/></clipPath><clipPath id="c"><path d="M 51 45 L 54.398438 45 L 54.398438 58.785156 L 51 58.785156 Z M 51 45"/></clipPath><clipPath id="d"><path d="M 50 28.035156 L 54 28.035156 L 54 46 L 50 46 Z M 50 28.035156"/></clipPath><clipPath id="e"><path d="M 22 39 L 26 39 L 26 58.785156 L 22 58.785156 Z M 22 39"/></clipPath><clipPath id="f"><path d="M 24 28.035156 L 28 28.035156 L 28 40 L 24 40 Z M 24 28.035156"/></clipPath><clipPath id="g"><path d="M 20.648438 28.035156 L 24 28.035156 L 24 40 L 20.648438 40 Z M 20.648438 28.035156"/></clipPath><clipPath id="h"><path d="M 23 28.035156 L 25 28.035156 L 25 39 L 23 39 Z M 23 28.035156"/></clipPath><clipPath id="i"><path d="M 13.660156 63.652344 L 62.574219 63.652344 L 62.574219 74.4375 L 13.660156 74.4375 Z M 13.660156 63.652344"/></clipPath><clipPath id="j"><path d="M 13.660156 66.683594 L 62.574219 66.683594 L 62.574219 74.460938 L 13.660156 74.460938 Z M 13.660156 66.683594"/></clipPath></defs><g clip-path="url(#a)"><path fill="#EBEBEB" d="M 37.738281 71.867188 C 22.023438 71.867188 9.238281 59.082031 9.238281 43.367188 C 9.238281 27.652344 22.023438 14.867188 37.738281 14.867188 C 53.453125 14.867188 66.238281 27.652344 66.238281 43.367188 C 66.238281 59.082031 53.453125 71.867188 37.738281 71.867188 Z M 37.738281 15.371094 C 22.304688 15.371094 9.746094 27.929688 9.746094 43.367188 C 9.746094 58.800781 22.304688 71.359375 37.738281 71.359375 C 53.175781 71.359375 65.734375 58.800781 65.734375 43.367188 C 65.734375 27.929688 53.175781 15.371094 37.738281 15.371094 Z M 37.738281 15.371094"/></g><path fill="#F1F6F6" d="M 37.632812 18.511719 C 23.753906 18.511719 12.507812 29.757812 12.507812 43.636719 C 12.507812 57.511719 23.753906 68.761719 37.632812 68.761719 C 51.507812 68.761719 62.757812 57.511719 62.757812 43.636719 C 62.757812 29.757812 51.507812 18.511719 37.632812 18.511719"/><g clip-path="url(#b)"><path fill="#152427" d="M 38.546875 32.9375 C 34.96875 32.9375 31.722656 34.378906 29.378906 36.707031 C 27.273438 38.796875 25.886719 41.605469 25.628906 44.730469 C 25.71875 44.921875 25.769531 45.136719 25.769531 45.359375 L 25.769531 47.980469 C 26.230469 50.660156 27.523438 53.054688 29.378906 54.894531 C 31.722656 57.222656 34.96875 58.664062 38.546875 58.664062 C 42.125 58.664062 45.367188 57.222656 47.710938 54.894531 C 49.519531 53.101562 50.796875 50.78125 51.285156 48.183594 L 51.285156 46.523438 C 51.285156 46.316406 51.332031 46.117188 51.414062 45.941406 C 51.4375 45.890625 51.460938 45.847656 51.488281 45.800781 L 50.46875 45.800781 C 50.46875 49.070312 49.136719 52.023438 46.976562 54.167969 C 44.816406 56.308594 41.839844 57.632812 38.546875 57.632812 C 35.25 57.632812 32.273438 56.308594 30.113281 54.167969 C 27.953125 52.023438 26.621094 49.070312 26.621094 45.800781 C 26.621094 42.53125 27.953125 39.578125 30.113281 37.433594 C 32.273438 35.292969 35.25 33.96875 38.546875 33.96875 C 41.839844 33.96875 44.816406 35.292969 46.976562 37.433594 C 49.136719 39.578125 50.46875 42.53125 50.46875 45.800781 L 51.488281 45.800781 C 51.496094 45.789062 51.503906 45.78125 51.507812 45.769531 C 51.5 42.230469 50.050781 39.027344 47.710938 36.707031 C 45.367188 34.378906 42.125 32.9375 38.546875 32.9375"/></g><path fill="#152427" d="M 39.03125 35.347656 C 35.960938 35.347656 33.175781 36.585938 31.164062 38.582031 C 29.148438 40.578125 27.902344 43.34375 27.902344 46.390625 C 27.902344 46.671875 28.136719 46.902344 28.421875 46.902344 C 28.710938 46.902344 28.941406 46.671875 28.941406 46.390625 C 28.941406 43.625 30.070312 41.125 31.898438 39.3125 C 33.722656 37.5 36.242188 36.378906 39.03125 36.378906 C 39.316406 36.378906 39.550781 36.148438 39.550781 35.863281 C 39.550781 35.578125 39.316406 35.347656 39.03125 35.347656"/><path fill="#152427" d="M 48.667969 44.699219 C 48.382812 44.699219 48.148438 44.929688 48.148438 45.214844 C 48.148438 47.980469 47.023438 50.476562 45.195312 52.292969 C 43.367188 54.105469 40.847656 55.222656 38.0625 55.222656 C 37.773438 55.222656 37.542969 55.453125 37.542969 55.738281 C 37.542969 56.023438 37.773438 56.253906 38.0625 56.253906 C 41.132812 56.253906 43.917969 55.015625 45.929688 53.019531 C 47.941406 51.023438 49.1875 48.261719 49.1875 45.214844 C 49.1875 44.929688 48.957031 44.699219 48.667969 44.699219"/><g clip-path="url(#c)"><path fill="#152427" d="M 53.691406 45.292969 L 53.691406 45.554688 C 53.691406 45.839844 53.457031 46.070312 53.171875 46.070312 C 53.03125 46.070312 52.90625 46.015625 52.8125 45.925781 C 52.71875 46.015625 52.59375 46.070312 52.453125 46.070312 C 52.164062 46.070312 51.933594 45.839844 51.933594 45.554688 L 51.933594 45.332031 C 51.871094 45.375 51.8125 45.421875 51.757812 45.472656 C 51.664062 45.558594 51.578125 45.660156 51.507812 45.769531 C 51.507812 45.78125 51.507812 45.789062 51.507812 45.800781 C 51.507812 46.613281 51.433594 47.410156 51.289062 48.183594 L 51.289062 57.316406 C 51.289062 57.523438 51.332031 57.726562 51.414062 57.902344 C 51.664062 58.4375 52.21875 58.785156 52.84375 58.785156 C 53.257812 58.785156 53.644531 58.628906 53.929688 58.371094 C 54.070312 58.238281 54.1875 58.082031 54.269531 57.902344 C 54.351562 57.726562 54.398438 57.523438 54.398438 57.316406 L 53.359375 57.316406 C 53.359375 57.375 53.347656 57.425781 53.324219 57.476562 C 53.257812 57.621094 53.078125 57.753906 52.84375 57.753906 C 52.6875 57.753906 52.554688 57.699219 52.460938 57.613281 C 52.417969 57.570312 52.382812 57.523438 52.359375 57.476562 C 52.335938 57.425781 52.324219 57.375 52.324219 57.316406 L 52.324219 46.523438 C 52.324219 46.46875 52.335938 46.417969 52.359375 46.367188 C 52.425781 46.21875 52.609375 46.085938 52.839844 46.085938 C 52.839844 46.085938 52.839844 46.085938 52.84375 46.085938 C 53 46.085938 53.132812 46.144531 53.222656 46.230469 C 53.269531 46.269531 53.300781 46.320312 53.324219 46.367188 C 53.347656 46.417969 53.359375 46.46875 53.359375 46.523438 L 53.359375 57.316406 L 54.398438 57.316406 L 54.398438 46.523438 C 54.398438 46.316406 54.351562 46.117188 54.269531 45.941406 C 54.144531 45.671875 53.941406 45.449219 53.691406 45.292969"/></g><path fill="#152427" d="M 51.507812 45.800781 L 51.488281 45.800781 C 51.460938 45.847656 51.4375 45.890625 51.414062 45.941406 C 51.332031 46.117188 51.289062 46.316406 51.289062 46.523438 L 51.289062 48.183594 C 51.433594 47.410156 51.507812 46.613281 51.507812 45.800781 M 51.507812 45.769531 C 51.503906 45.78125 51.496094 45.789062 51.488281 45.800781 L 51.507812 45.800781 C 51.507812 45.789062 51.507812 45.78125 51.507812 45.769531"/><g clip-path="url(#d)"><path fill="#152427" d="M 52.652344 42.417969 C 51.496094 40.308594 51.09375 38.300781 51.089844 36.5 C 51.089844 34.273438 51.714844 32.355469 52.34375 30.996094 C 52.449219 30.769531 52.550781 30.5625 52.652344 30.367188 L 52.652344 42.417969 M 53.171875 28.03125 C 53.015625 28.03125 52.863281 28.101562 52.761719 28.230469 C 52.746094 28.253906 52.074219 29.109375 51.398438 30.566406 C 50.726562 32.023438 50.054688 34.082031 50.050781 36.5 C 50.050781 38.554688 50.546875 40.867188 51.933594 43.25 L 51.933594 45.335938 C 52.191406 45.160156 52.507812 45.058594 52.84375 45.058594 C 53.152344 45.058594 53.445312 45.144531 53.691406 45.292969 L 53.691406 28.546875 C 53.691406 28.328125 53.550781 28.132812 53.339844 28.058594 C 53.285156 28.042969 53.230469 28.03125 53.171875 28.03125"/></g><path fill="#152427" d="M 52.84375 45.058594 C 52.507812 45.058594 52.191406 45.160156 51.933594 45.332031 L 51.933594 45.554688 C 51.933594 45.839844 52.164062 46.070312 52.453125 46.070312 C 52.59375 46.070312 52.71875 46.015625 52.8125 45.925781 C 52.90625 46.015625 53.03125 46.070312 53.171875 46.070312 C 53.457031 46.070312 53.691406 45.839844 53.691406 45.554688 L 53.691406 45.292969 C 53.445312 45.144531 53.152344 45.058594 52.84375 45.058594"/><g clip-path="url(#e)"><path fill="#152427" d="M 24.113281 57.734375 C 23.929688 57.734375 23.769531 57.664062 23.660156 57.5625 C 23.605469 57.511719 23.5625 57.457031 23.535156 57.394531 C 23.507812 57.335938 23.496094 57.273438 23.492188 57.203125 L 23.492188 45.359375 C 23.496094 45.25 23.53125 45.152344 23.601562 45.0625 C 23.671875 44.972656 23.78125 44.898438 23.90625 44.859375 C 23.984375 44.835938 24.054688 44.796875 24.113281 44.742188 C 24.167969 44.796875 24.238281 44.835938 24.316406 44.859375 C 24.445312 44.898438 24.550781 44.972656 24.621094 45.0625 C 24.691406 45.152344 24.730469 45.25 24.730469 45.359375 L 24.730469 57.203125 C 24.730469 57.273438 24.714844 57.335938 24.6875 57.394531 C 24.605469 57.578125 24.386719 57.734375 24.113281 57.734375 M 24.984375 39.746094 L 24.238281 39.746094 C 24.207031 39.753906 24.175781 39.757812 24.140625 39.757812 C 24.140625 39.757812 24.140625 39.757812 24.136719 39.757812 C 24.105469 39.757812 24.070312 39.753906 24.039062 39.746094 L 23.238281 39.746094 L 23.238281 44.035156 C 23.066406 44.136719 22.914062 44.265625 22.789062 44.421875 C 22.582031 44.675781 22.457031 45.007812 22.457031 45.359375 L 22.457031 57.203125 C 22.457031 57.421875 22.503906 57.632812 22.59375 57.824219 C 22.855469 58.390625 23.445312 58.761719 24.113281 58.761719 C 24.554688 58.761719 24.964844 58.597656 25.269531 58.320312 C 25.417969 58.179688 25.542969 58.011719 25.632812 57.824219 C 25.71875 57.632812 25.769531 57.421875 25.769531 57.203125 L 25.769531 47.980469 C 25.644531 47.269531 25.582031 46.542969 25.582031 45.800781 C 25.582031 45.441406 25.597656 45.082031 25.628906 44.730469 C 25.574219 44.617188 25.511719 44.515625 25.433594 44.421875 C 25.308594 44.265625 25.160156 44.136719 24.984375 44.035156 L 24.984375 39.746094"/></g><path fill="#152427" d="M 25.628906 44.730469 C 25.597656 45.082031 25.582031 45.441406 25.582031 45.800781 C 25.582031 46.542969 25.644531 47.269531 25.769531 47.980469 L 25.769531 45.359375 C 25.769531 45.136719 25.71875 44.921875 25.628906 44.730469"/><g clip-path="url(#f)"><path fill="#152427" d="M 27.050781 28.464844 C 26.765625 28.464844 26.53125 28.695312 26.53125 28.980469 L 26.53125 36.480469 C 26.535156 37.148438 26.347656 37.746094 26.082031 38.140625 C 25.949219 38.339844 25.796875 38.488281 25.648438 38.582031 C 25.5 38.675781 25.359375 38.714844 25.214844 38.71875 L 24.65625 38.71875 L 24.65625 38.828125 C 24.847656 38.902344 24.984375 39.089844 24.984375 39.308594 L 24.984375 39.746094 L 25.214844 39.746094 C 25.578125 39.746094 25.917969 39.636719 26.207031 39.449219 C 26.648438 39.171875 26.980469 38.742188 27.210938 38.230469 C 27.441406 37.71875 27.570312 37.121094 27.570312 36.480469 L 27.570312 28.980469 C 27.570312 28.695312 27.339844 28.464844 27.050781 28.464844"/></g><path fill="#152427" d="M 24.65625 38.828125 L 24.65625 39.238281 C 24.660156 39.492188 24.480469 39.699219 24.238281 39.746094 L 24.984375 39.746094 L 24.984375 39.308594 C 24.984375 39.089844 24.847656 38.902344 24.65625 38.828125"/><g clip-path="url(#g)"><path fill="#152427" d="M 21.171875 28.464844 C 20.886719 28.464844 20.652344 28.695312 20.652344 28.980469 L 20.652344 36.480469 C 20.652344 37.332031 20.878906 38.113281 21.277344 38.710938 C 21.476562 39.011719 21.722656 39.265625 22.015625 39.449219 C 22.304688 39.636719 22.648438 39.746094 23.007812 39.746094 C 23.007812 39.746094 23.007812 39.746094 23.011719 39.746094 L 23.238281 39.746094 L 23.238281 39.308594 C 23.238281 39.070312 23.398438 38.871094 23.617188 38.8125 L 23.617188 38.71875 L 23.011719 38.71875 C 22.863281 38.714844 22.722656 38.675781 22.574219 38.582031 C 22.351562 38.445312 22.125 38.175781 21.960938 37.808594 C 21.792969 37.441406 21.691406 36.980469 21.691406 36.480469 L 21.691406 28.980469 C 21.691406 28.695312 21.457031 28.464844 21.171875 28.464844"/></g><path fill="#152427" d="M 23.617188 38.8125 C 23.398438 38.871094 23.238281 39.070312 23.238281 39.308594 L 23.238281 39.746094 L 24.039062 39.746094 C 23.800781 39.699219 23.621094 39.492188 23.621094 39.246094 L 23.617188 38.8125"/><g clip-path="url(#h)"><path fill="#152427" d="M 24.085938 28.472656 C 24.085938 28.472656 24.085938 28.472656 24.082031 28.472656 C 23.796875 28.476562 23.566406 28.707031 23.566406 28.992188 L 23.617188 38.71875 L 23.617188 38.8125 C 23.660156 38.800781 23.707031 38.792969 23.757812 38.792969 C 23.894531 38.792969 24.019531 38.84375 24.113281 38.933594 C 24.203125 38.84375 24.328125 38.792969 24.46875 38.792969 C 24.535156 38.792969 24.597656 38.804688 24.65625 38.828125 L 24.65625 38.71875 L 24.605469 28.988281 C 24.601562 28.703125 24.371094 28.472656 24.085938 28.472656"/></g><path fill="#152427" d="M 24.46875 38.792969 C 24.328125 38.792969 24.203125 38.84375 24.113281 38.933594 C 24.019531 38.84375 23.894531 38.792969 23.757812 38.792969 C 23.707031 38.792969 23.660156 38.800781 23.617188 38.8125 L 23.621094 39.246094 C 23.621094 39.492188 23.800781 39.699219 24.039062 39.746094 C 24.070312 39.753906 24.105469 39.757812 24.136719 39.757812 C 24.140625 39.757812 24.140625 39.757812 24.140625 39.757812 C 24.175781 39.757812 24.207031 39.753906 24.238281 39.746094 C 24.480469 39.699219 24.660156 39.492188 24.65625 39.238281 L 24.65625 38.828125 C 24.597656 38.804688 24.535156 38.792969 24.46875 38.792969"/><g clip-path="url(#i)"><path fill="#152427" d="M 13.660156 63.652344 L 62.574219 63.652344 L 62.574219 74.4375 L 13.660156 74.4375 Z M 13.660156 63.652344"/></g><g clip-path="url(#j)"><path fill="#F1F6F6" d="M 13.660156 66.683594 L 62.574219 66.683594 L 62.574219 74.460938 L 13.660156 74.460938 Z M 13.660156 66.683594"/></g><g fill="#F1F6F6"><g><g><path d="M 0.40625 -0.328125 L 0.109375 -0.703125 L 0.78125 -1.234375 L -2.828125 -5.78125 L -3.5 -5.25 L -3.796875 -5.625 L 0.53125 -9.0625 L 1.453125 -7.890625 L 1.03125 -7.546875 L 0.453125 -8.28125 L -2.0625 -6.28125 L -0.65625 -4.5 L 1.15625 -5.9375 L 0.625 -6.609375 L 1.046875 -6.953125 L 2.453125 -5.203125 L 2.03125 -4.859375 L 1.5 -5.515625 L -0.3125 -4.078125 L 1.5 -1.796875 L 2.34375 -2.46875 L 2.640625 -2.09375 Z M 0.40625 -0.328125" transform="translate(12.905 18.873)"/></g></g></g><g fill="#F1F6F6"><g><g><path d="M 3.21875 -2.0625 C 3.875 -2.40625 4.253906 -2.890625 4.359375 -3.515625 C 4.460938 -4.140625 4.285156 -4.894531 3.828125 -5.78125 C 3.367188 -6.664062 2.851562 -7.25 2.28125 -7.53125 C 1.71875 -7.8125 1.109375 -7.78125 0.453125 -7.4375 C -0.210938 -7.09375 -0.59375 -6.609375 -0.6875 -5.984375 C -0.789062 -5.359375 -0.613281 -4.601562 -0.15625 -3.71875 C 0.300781 -2.832031 0.8125 -2.25 1.375 -1.96875 C 1.9375 -1.6875 2.550781 -1.71875 3.21875 -2.0625 Z M 3.453125 -1.640625 C 3.046875 -1.429688 2.632812 -1.304688 2.21875 -1.265625 C 1.800781 -1.222656 1.390625 -1.265625 0.984375 -1.390625 C 0.546875 -1.523438 0.15625 -1.742188 -0.1875 -2.046875 C -0.539062 -2.359375 -0.84375 -2.753906 -1.09375 -3.234375 C -1.351562 -3.722656 -1.503906 -4.195312 -1.546875 -4.65625 C -1.585938 -5.113281 -1.539062 -5.570312 -1.40625 -6.03125 C -1.269531 -6.425781 -1.066406 -6.773438 -0.796875 -7.078125 C -0.535156 -7.390625 -0.195312 -7.65625 0.21875 -7.875 C 1.082031 -8.320312 1.929688 -8.398438 2.765625 -8.109375 C 3.597656 -7.816406 4.257812 -7.203125 4.75 -6.265625 C 5 -5.785156 5.148438 -5.3125 5.203125 -4.84375 C 5.253906 -4.382812 5.203125 -3.929688 5.046875 -3.484375 C 4.929688 -3.078125 4.738281 -2.71875 4.46875 -2.40625 C 4.195312 -2.101562 3.859375 -1.847656 3.453125 -1.640625 Z M 3.453125 -1.640625" transform="translate(17.838 14.871)"/></g></g></g><g fill="#F1F6F6"><g><g><path d="M 3.578125 -1.359375 C 4.296875 -1.554688 4.765625 -1.945312 4.984375 -2.53125 C 5.210938 -3.125 5.195312 -3.898438 4.9375 -4.859375 C 4.664062 -5.828125 4.28125 -6.503906 3.78125 -6.890625 C 3.289062 -7.285156 2.6875 -7.382812 1.96875 -7.1875 C 1.25 -6.988281 0.773438 -6.59375 0.546875 -6 C 0.316406 -5.414062 0.335938 -4.640625 0.609375 -3.671875 C 0.867188 -2.710938 1.25 -2.035156 1.75 -1.640625 C 2.25 -1.253906 2.859375 -1.160156 3.578125 -1.359375 Z M 3.703125 -0.890625 C 3.265625 -0.765625 2.835938 -0.722656 2.421875 -0.765625 C 2.003906 -0.804688 1.617188 -0.929688 1.265625 -1.140625 C 0.859375 -1.367188 0.515625 -1.671875 0.234375 -2.046875 C -0.046875 -2.421875 -0.253906 -2.867188 -0.390625 -3.390625 C -0.535156 -3.921875 -0.582031 -4.410156 -0.53125 -4.859375 C -0.488281 -5.316406 -0.351562 -5.757812 -0.125 -6.1875 C 0.0820312 -6.539062 0.347656 -6.84375 0.671875 -7.09375 C 1.003906 -7.34375 1.394531 -7.53125 1.84375 -7.65625 C 2.789062 -7.914062 3.640625 -7.816406 4.390625 -7.359375 C 5.148438 -6.898438 5.671875 -6.160156 5.953125 -5.140625 C 6.085938 -4.617188 6.132812 -4.125 6.09375 -3.65625 C 6.050781 -3.195312 5.910156 -2.765625 5.671875 -2.359375 C 5.460938 -1.984375 5.191406 -1.671875 4.859375 -1.421875 C 4.535156 -1.179688 4.148438 -1.003906 3.703125 -0.890625 Z M 3.703125 -0.890625" transform="translate(24.471 11.424)"/></g></g></g><g fill="#F1F6F6"><g><g><path d="M 2.265625 -0.625 L 3.109375 -0.671875 C 3.972656 -0.734375 4.625 -1.023438 5.0625 -1.546875 C 5.5 -2.078125 5.691406 -2.8125 5.640625 -3.75 C 5.578125 -4.675781 5.296875 -5.375 4.796875 -5.84375 C 4.296875 -6.3125 3.613281 -6.515625 2.75 -6.453125 L 1.90625 -6.40625 Z M 0.515625 -0.03125 L 0.484375 -0.515625 L 1.34375 -0.5625 L 0.984375 -6.34375 L 0.125 -6.296875 L 0.09375 -6.78125 L 2.78125 -6.953125 C 3.9375 -7.023438 4.859375 -6.78125 5.546875 -6.21875 C 6.234375 -5.664062 6.613281 -4.863281 6.6875 -3.8125 C 6.75 -2.75 6.472656 -1.898438 5.859375 -1.265625 C 5.242188 -0.628906 4.359375 -0.273438 3.203125 -0.203125 Z M 0.515625 -0.03125" transform="translate(31.682 9.434)"/></g></g></g><g fill="#F1F6F6"><g><g><path d="M 0.515625 0.0625 L 0.578125 -0.421875 L 1.421875 -0.3125 L 2.171875 -6.0625 L 1.328125 -6.171875 L 1.390625 -6.640625 L 6.875 -5.921875 L 6.6875 -4.4375 L 6.140625 -4.515625 L 6.25 -5.453125 L 3.078125 -5.859375 L 2.796875 -3.609375 L 5.09375 -3.3125 L 5.203125 -4.15625 L 5.734375 -4.078125 L 5.4375 -1.859375 L 4.90625 -1.9375 L 5.015625 -2.765625 L 2.71875 -3.0625 L 2.34375 -0.1875 L 3.40625 -0.046875 L 3.34375 0.4375 Z M 0.515625 0.0625" transform="translate(39.018 9.019)"/></g></g></g><g fill="#F1F6F6"><g><g><path d="M 0.484375 0.15625 L 0.625 -0.3125 L 1.453125 -0.0625 L 3.203125 -5.578125 L 2.375 -5.828125 L 2.515625 -6.296875 L 5.046875 -5.5 L 4.90625 -5.03125 L 4.078125 -5.296875 L 2.359375 0.15625 L 5.3125 1.078125 L 5.640625 0 L 6.171875 0.171875 L 5.671875 1.78125 Z M 0.484375 0.15625" transform="translate(45.358 9.853)"/></g></g></g><g fill="#F1F6F6"><g><g><path d="M 0.453125 0.234375 L 0.671875 -0.1875 L 1.4375 0.21875 L 4.140625 -4.921875 L 3.375 -5.328125 L 3.59375 -5.75 L 8.40625 -3.21875 L 7.71875 -1.890625 L 7.234375 -2.140625 L 7.671875 -2.96875 L 4.921875 -4.421875 L 3.859375 -2.421875 L 5.828125 -1.390625 L 6.234375 -2.15625 L 6.71875 -1.890625 L 5.671875 0.109375 L 5.1875 -0.15625 L 5.578125 -0.90625 L 3.609375 -1.9375 L 2.296875 0.5625 L 5.109375 2.046875 L 5.546875 1.21875 L 6.046875 1.484375 L 5.34375 2.8125 Z M 0.453125 0.234375" transform="translate(51.196 11.655)"/></g></g></g><g fill="#F1F6F6"><g><g><path d="M 4.21875 -0.359375 L 1.40625 0.5 L 2.09375 1.046875 L 1.796875 1.421875 L 0.03125 0.03125 L 0.328125 -0.34375 L 0.953125 0.140625 L 4.25 -0.890625 L 4.53125 -4.421875 L 3.953125 -4.875 L 4.265625 -5.265625 L 6.375 -3.59375 L 6.0625 -3.203125 L 5.4375 -3.703125 L 5.234375 -1.09375 L 7.734375 -1.875 L 7.046875 -2.421875 L 7.359375 -2.8125 L 9.109375 -1.4375 L 8.796875 -1.046875 L 8.203125 -1.515625 L 5.1875 -0.578125 L 4.875 3.25 L 5.4375 3.703125 L 5.140625 4.078125 L 3.046875 2.40625 L 3.34375 2.03125 L 3.96875 2.53125 Z M 4.21875 -0.359375" transform="translate(57.129 14.775)"/></g></g></g><g fill="#152427"><g><g><path d="M 1.75 -1.3125 C 1.832031 -1.289062 1.898438 -1.253906 1.953125 -1.203125 C 2.015625 -1.148438 2.070312 -1.070312 2.125 -0.96875 L 2.5 -0.1875 L 2.828125 -0.1875 L 2.828125 0 L 2.203125 0 L 1.78125 -0.84375 C 1.707031 -1.007812 1.632812 -1.113281 1.5625 -1.15625 C 1.5 -1.207031 1.410156 -1.234375 1.296875 -1.234375 L 0.90625 -1.234375 L 0.90625 -0.1875 L 1.28125 -0.1875 L 1.28125 0 L 0.203125 0 L 0.203125 -0.1875 L 0.53125 -0.1875 L 0.53125 -2.46875 L 0.203125 -2.46875 L 0.203125 -2.65625 L 1.546875 -2.65625 C 1.804688 -2.65625 2.003906 -2.59375 2.140625 -2.46875 C 2.285156 -2.34375 2.359375 -2.164062 2.359375 -1.9375 C 2.359375 -1.757812 2.304688 -1.617188 2.203125 -1.515625 C 2.097656 -1.410156 1.945312 -1.34375 1.75 -1.3125 Z M 0.90625 -1.421875 L 1.421875 -1.421875 C 1.597656 -1.421875 1.726562 -1.460938 1.8125 -1.546875 C 1.90625 -1.628906 1.953125 -1.757812 1.953125 -1.9375 C 1.953125 -2.125 1.90625 -2.257812 1.8125 -2.34375 C 1.726562 -2.425781 1.597656 -2.46875 1.421875 -2.46875 L 0.90625 -2.46875 Z M 0.90625 -1.421875" transform="translate(21.307 71.812)"/></g></g></g><g fill="#152427"><g><g><path d="M 0.203125 0 L 0.203125 -0.1875 L 0.53125 -0.1875 L 0.53125 -2.46875 L 0.203125 -2.46875 L 0.203125 -2.65625 L 2.34375 -2.65625 L 2.34375 -2.0625 L 2.125 -2.0625 L 2.125 -2.4375 L 0.90625 -2.4375 L 0.90625 -1.546875 L 1.765625 -1.546875 L 1.765625 -1.875 L 1.984375 -1.875 L 1.984375 -1 L 1.765625 -1 L 1.765625 -1.328125 L 0.90625 -1.328125 L 0.90625 -0.21875 L 2.140625 -0.21875 L 2.140625 -0.59375 L 2.359375 -0.59375 L 2.359375 0 Z M 0.203125 0" transform="translate(24.775 71.812)"/></g></g></g><g fill="#152427"><g><g><path d="M 0.34375 -0.125 L 0.34375 -0.734375 L 0.546875 -0.734375 C 0.546875 -0.523438 0.601562 -0.375 0.71875 -0.28125 C 0.832031 -0.1875 1 -0.140625 1.21875 -0.140625 C 1.4375 -0.140625 1.597656 -0.179688 1.703125 -0.265625 C 1.816406 -0.347656 1.875 -0.46875 1.875 -0.625 C 1.875 -0.757812 1.835938 -0.859375 1.765625 -0.921875 C 1.703125 -0.992188 1.5625 -1.0625 1.34375 -1.125 L 1 -1.234375 C 0.738281 -1.304688 0.554688 -1.398438 0.453125 -1.515625 C 0.359375 -1.628906 0.3125 -1.785156 0.3125 -1.984375 C 0.3125 -2.210938 0.390625 -2.390625 0.546875 -2.515625 C 0.703125 -2.640625 0.925781 -2.703125 1.21875 -2.703125 C 1.34375 -2.703125 1.476562 -2.6875 1.625 -2.65625 C 1.769531 -2.632812 1.925781 -2.597656 2.09375 -2.546875 L 2.09375 -1.984375 L 1.890625 -1.984375 C 1.867188 -2.171875 1.804688 -2.304688 1.703125 -2.390625 C 1.597656 -2.472656 1.441406 -2.515625 1.234375 -2.515625 C 1.046875 -2.515625 0.898438 -2.472656 0.796875 -2.390625 C 0.703125 -2.316406 0.65625 -2.207031 0.65625 -2.0625 C 0.65625 -1.9375 0.691406 -1.835938 0.765625 -1.765625 C 0.835938 -1.691406 0.992188 -1.617188 1.234375 -1.546875 L 1.5625 -1.453125 C 1.800781 -1.378906 1.972656 -1.285156 2.078125 -1.171875 C 2.179688 -1.066406 2.234375 -0.914062 2.234375 -0.71875 C 2.234375 -0.46875 2.148438 -0.273438 1.984375 -0.140625 C 1.816406 -0.015625 1.570312 0.046875 1.25 0.046875 C 1.101562 0.046875 0.953125 0.03125 0.796875 0 C 0.648438 -0.0195312 0.5 -0.0625 0.34375 -0.125 Z M 0.34375 -0.125" transform="translate(28.16 71.812)"/></g></g></g><g fill="#152427"><g><g><path d="M 0.6875 0 L 0.6875 -0.1875 L 1.03125 -0.1875 L 1.03125 -2.4375 L 0.25 -2.4375 L 0.25 -2.03125 L 0.03125 -2.03125 L 0.03125 -2.65625 L 2.390625 -2.65625 L 2.390625 -2.03125 L 2.171875 -2.03125 L 2.171875 -2.4375 L 1.390625 -2.4375 L 1.390625 -0.1875 L 1.734375 -0.1875 L 1.734375 0 Z M 0.6875 0" transform="translate(31.38 71.812)"/></g></g></g><g fill="#152427"><g><g><path d="M 0.734375 -0.96875 L 1.703125 -0.96875 L 1.21875 -2.21875 Z M -0.015625 0 L -0.015625 -0.1875 L 0.21875 -0.1875 L 1.15625 -2.65625 L 1.453125 -2.65625 L 2.40625 -0.1875 L 2.671875 -0.1875 L 2.671875 0 L 1.703125 0 L 1.703125 -0.1875 L 2 -0.1875 L 1.765625 -0.765625 L 0.65625 -0.765625 L 0.4375 -0.1875 L 0.71875 -0.1875 L 0.71875 0 Z M -0.015625 0" transform="translate(34.535 71.812)"/></g></g></g><g fill="#152427"><g><g><path d="M 0.515625 -2.46875 L 0.171875 -2.46875 L 0.171875 -2.65625 L 1.203125 -2.65625 L 1.203125 -2.46875 L 0.875 -2.46875 L 0.875 -1.09375 C 0.875 -0.75 0.925781 -0.507812 1.03125 -0.375 C 1.144531 -0.25 1.335938 -0.1875 1.609375 -0.1875 C 1.878906 -0.1875 2.066406 -0.25 2.171875 -0.375 C 2.285156 -0.507812 2.34375 -0.75 2.34375 -1.09375 L 2.34375 -2.46875 L 2.015625 -2.46875 L 2.015625 -2.65625 L 2.90625 -2.65625 L 2.90625 -2.46875 L 2.5625 -2.46875 L 2.5625 -1.0625 C 2.5625 -0.65625 2.484375 -0.367188 2.328125 -0.203125 C 2.171875 -0.0351562 1.910156 0.046875 1.546875 0.046875 C 1.171875 0.046875 0.90625 -0.0351562 0.75 -0.203125 C 0.59375 -0.367188 0.515625 -0.65625 0.515625 -1.0625 Z M 0.515625 -2.46875" transform="translate(37.891 71.812)"/></g></g></g><g fill="#152427"><g><g><path d="M 0.171875 0 L 0.171875 -0.1875 L 0.53125 -0.1875 L 0.53125 -2.46875 L 0.171875 -2.46875 L 0.171875 -2.65625 L 0.859375 -2.65625 L 2.453125 -0.5625 L 2.453125 -2.46875 L 2.09375 -2.46875 L 2.09375 -2.65625 L 3.03125 -2.65625 L 3.03125 -2.46875 L 2.671875 -2.46875 L 2.671875 0.046875 L 2.453125 0.046875 L 0.75 -2.1875 L 0.75 -0.1875 L 1.109375 -0.1875 L 1.109375 0 Z M 0.171875 0" transform="translate(48.51 71.812)"/></g></g></g></svg>